<svg width="36" height="32" viewBox="0 0 36 32" fill="none" xmlns="http://www.w3.org/2000/svg">
<g filter="url(#filter0_d_2_13397)">
<path d="M30.7067 9.53333C30.5041 9.41631 30.2741 9.3547 30.0401 9.3547C29.806 9.3547 29.5761 9.41631 29.3734 9.53333L24.6667 11.8533C24.6288 10.8181 24.1906 9.83796 23.4446 9.11925C22.6985 8.40054 21.7027 7.9993 20.6667 8H8.66675C7.60588 8 6.58847 8.42143 5.83832 9.17157C5.08818 9.92172 4.66675 10.9391 4.66675 12V20C4.66675 21.0609 5.08818 22.0783 5.83832 22.8284C6.58847 23.5786 7.60588 24 8.66675 24H20.6667C21.7027 24.0007 22.6985 23.5995 23.4446 22.8807C24.1906 22.162 24.6288 21.1819 24.6667 20.1467L29.4134 22.52C29.5952 22.6132 29.7959 22.6634 30.0001 22.6667C30.2497 22.6675 30.4946 22.5982 30.7067 22.4667C30.8989 22.3466 31.0573 22.1795 31.1669 21.9812C31.2766 21.7829 31.3339 21.5599 31.3334 21.3333V10.6667C31.3339 10.4401 31.2766 10.2171 31.1669 10.0188C31.0573 9.82051 30.8989 9.65343 30.7067 9.53333ZM22.0001 20C22.0001 20.3536 21.8596 20.6928 21.6096 20.9428C21.3595 21.1929 21.0204 21.3333 20.6667 21.3333H8.66675C8.31313 21.3333 7.97399 21.1929 7.72394 20.9428C7.47389 20.6928 7.33341 20.3536 7.33341 20V12C7.33341 11.6464 7.47389 11.3072 7.72394 11.0572C7.97399 10.8071 8.31313 10.6667 8.66675 10.6667H20.6667C21.0204 10.6667 21.3595 10.8071 21.6096 11.0572C21.8596 11.3072 22.0001 11.6464 22.0001 12V20ZM28.6667 19.1733L24.6667 17.1733V14.8267L28.6667 12.8267V19.1733Z" fill="#0069A3"/>
</g>
<defs>
<filter id="filter0_d_2_13397" x="-2" y="0" width="40" height="40" filterUnits="userSpaceOnUse" color-interpolation-filters="sRGB">
<feFlood flood-opacity="0" result="BackgroundImageFix"/>
<feColorMatrix in="SourceAlpha" type="matrix" values="0 0 0 0 0 0 0 0 0 0 0 0 0 0 0 0 0 0 127 0" result="hardAlpha"/>
<feOffset dy="4"/>
<feGaussianBlur stdDeviation="2"/>
<feComposite in2="hardAlpha" operator="out"/>
<feColorMatrix type="matrix" values="0 0 0 0 0 0 0 0 0 0 0 0 0 0 0 0 0 0 0.25 0"/>
<feBlend mode="normal" in2="BackgroundImageFix" result="effect1_dropShadow_2_13397"/>
<feBlend mode="normal" in="SourceGraphic" in2="effect1_dropShadow_2_13397" result="shape"/>
</filter>
</defs>
</svg>
