<svg width="30" height="31" viewBox="0 0 30 31" fill="none" xmlns="http://www.w3.org/2000/svg">
<g filter="url(#filter0_d_202_2654)">
<path d="M14.5 21.75C8.85 21.75 4.25 17.15 4.25 11.5C4.25 5.85 8.85 1.25 14.5 1.25C20.15 1.25 24.75 5.85 24.75 11.5C24.75 17.15 20.15 21.75 14.5 21.75ZM14.5 2.75C9.67 2.75 5.75 6.68 5.75 11.5C5.75 16.32 9.67 20.25 14.5 20.25C19.33 20.25 23.25 16.32 23.25 11.5C23.25 6.68 19.33 2.75 14.5 2.75Z" fill="#AFAFAF"/>
<path d="M24.9999 22.7499C24.8099 22.7499 24.6199 22.6799 24.4699 22.5299L22.4699 20.5299C22.1799 20.2399 22.1799 19.7599 22.4699 19.4699C22.7599 19.1799 23.2399 19.1799 23.5299 19.4699L25.5299 21.4699C25.8199 21.7599 25.8199 22.2399 25.5299 22.5299C25.3799 22.6799 25.1899 22.7499 24.9999 22.7499Z" fill="#AFAFAF"/>
</g>
<defs>
<filter id="filter0_d_202_2654" x="-1" y="0" width="32" height="32" filterUnits="userSpaceOnUse" color-interpolation-filters="sRGB">
<feFlood flood-opacity="0" result="BackgroundImageFix"/>
<feColorMatrix in="SourceAlpha" type="matrix" values="0 0 0 0 0 0 0 0 0 0 0 0 0 0 0 0 0 0 127 0" result="hardAlpha"/>
<feOffset dy="4"/>
<feGaussianBlur stdDeviation="2"/>
<feComposite in2="hardAlpha" operator="out"/>
<feColorMatrix type="matrix" values="0 0 0 0 0 0 0 0 0 0 0 0 0 0 0 0 0 0 0.25 0"/>
<feBlend mode="normal" in2="BackgroundImageFix" result="effect1_dropShadow_202_2654"/>
<feBlend mode="normal" in="SourceGraphic" in2="effect1_dropShadow_202_2654" result="shape"/>
</filter>
</defs>
</svg>
